<mxfile host="65bd71144e">
    <diagram name="Pagina-1" id="lwiuZCtT7IoAGvXuwIkr">
        <mxGraphModel dx="1086" dy="674" grid="1" gridSize="10" guides="1" tooltips="1" connect="1" arrows="1" fold="1" page="1" pageScale="1" pageWidth="827" pageHeight="1169" math="0" shadow="0">
            <root>
                <mxCell id="0"/>
                <mxCell id="1" parent="0"/>
                <mxCell id="s0uS01qcBZFRv248yT1l-1" value="Educator" style="shape=umlActor;verticalLabelPosition=bottom;verticalAlign=top;html=1;outlineConnect=0;" parent="1" vertex="1">
                    <mxGeometry x="110" y="130" width="30" height="60" as="geometry"/>
                </mxCell>
                <mxCell id="s0uS01qcBZFRv248yT1l-23" value="initiate" style="rounded=0;orthogonalLoop=1;jettySize=auto;html=1;exitX=1;exitY=0.3333333333333333;exitDx=0;exitDy=0;exitPerimeter=0;entryX=0;entryY=0.5;entryDx=0;entryDy=0;endArrow=none;endFill=0;" parent="1" source="s0uS01qcBZFRv248yT1l-2" target="s0uS01qcBZFRv248yT1l-19" edge="1">
                    <mxGeometry relative="1" as="geometry"/>
                </mxCell>
                <mxCell id="s0uS01qcBZFRv248yT1l-28" value="partecipate" style="rounded=0;orthogonalLoop=1;jettySize=auto;html=1;exitX=0.75;exitY=0.1;exitDx=0;exitDy=0;exitPerimeter=0;entryX=0;entryY=0.5;entryDx=0;entryDy=0;endArrow=none;endFill=0;" parent="1" source="s0uS01qcBZFRv248yT1l-2" target="s0uS01qcBZFRv248yT1l-26" edge="1">
                    <mxGeometry relative="1" as="geometry"/>
                </mxCell>
                <mxCell id="s0uS01qcBZFRv248yT1l-2" value="student" style="shape=umlActor;verticalLabelPosition=bottom;verticalAlign=top;html=1;outlineConnect=0;" parent="1" vertex="1">
                    <mxGeometry x="110" y="280" width="30" height="60" as="geometry"/>
                </mxCell>
                <mxCell id="s0uS01qcBZFRv248yT1l-27" value="partecipate" style="rounded=0;orthogonalLoop=1;jettySize=auto;html=1;exitX=0;exitY=0.3333333333333333;exitDx=0;exitDy=0;exitPerimeter=0;endArrow=none;endFill=0;" parent="1" source="s0uS01qcBZFRv248yT1l-3" target="s0uS01qcBZFRv248yT1l-26" edge="1">
                    <mxGeometry relative="1" as="geometry"/>
                </mxCell>
                <mxCell id="s0uS01qcBZFRv248yT1l-3" value="GitHub" style="shape=umlActor;verticalLabelPosition=bottom;verticalAlign=top;html=1;outlineConnect=0;" parent="1" vertex="1">
                    <mxGeometry x="500" y="270" width="30" height="60" as="geometry"/>
                </mxCell>
                <mxCell id="s0uS01qcBZFRv248yT1l-24" value="partecipate" style="rounded=0;orthogonalLoop=1;jettySize=auto;html=1;exitX=1;exitY=0.3333333333333333;exitDx=0;exitDy=0;exitPerimeter=0;endArrow=none;endFill=0;" parent="1" source="s0uS01qcBZFRv248yT1l-4" target="s0uS01qcBZFRv248yT1l-19" edge="1">
                    <mxGeometry relative="1" as="geometry">
                        <mxPoint x="230" y="495" as="targetPoint"/>
                    </mxGeometry>
                </mxCell>
                <mxCell id="s0uS01qcBZFRv248yT1l-4" value="Student" style="shape=umlActor;verticalLabelPosition=bottom;verticalAlign=top;html=1;outlineConnect=0;" parent="1" vertex="1">
                    <mxGeometry x="110" y="440" width="30" height="60" as="geometry"/>
                </mxCell>
                <mxCell id="s0uS01qcBZFRv248yT1l-5" value="Create Battle" style="rounded=1;whiteSpace=wrap;html=1;" parent="1" vertex="1">
                    <mxGeometry x="250" y="130" width="120" height="60" as="geometry"/>
                </mxCell>
                <mxCell id="s0uS01qcBZFRv248yT1l-6" value="" style="endArrow=none;html=1;rounded=0;entryX=0;entryY=0.5;entryDx=0;entryDy=0;" parent="1" source="s0uS01qcBZFRv248yT1l-1" target="s0uS01qcBZFRv248yT1l-5" edge="1">
                    <mxGeometry width="50" height="50" relative="1" as="geometry">
                        <mxPoint x="200" y="200" as="sourcePoint"/>
                        <mxPoint x="440" y="300" as="targetPoint"/>
                    </mxGeometry>
                </mxCell>
                <mxCell id="s0uS01qcBZFRv248yT1l-16" value="initiate" style="edgeLabel;html=1;align=center;verticalAlign=middle;resizable=0;points=[];" parent="s0uS01qcBZFRv248yT1l-6" vertex="1" connectable="0">
                    <mxGeometry x="-0.16" y="-2" relative="1" as="geometry">
                        <mxPoint as="offset"/>
                    </mxGeometry>
                </mxCell>
                <mxCell id="s0uS01qcBZFRv248yT1l-17" value="" style="endArrow=none;html=1;rounded=0;exitX=0.75;exitY=0.1;exitDx=0;exitDy=0;exitPerimeter=0;entryX=0;entryY=1;entryDx=0;entryDy=0;" parent="1" source="s0uS01qcBZFRv248yT1l-2" target="s0uS01qcBZFRv248yT1l-5" edge="1">
                    <mxGeometry width="50" height="50" relative="1" as="geometry">
                        <mxPoint x="390" y="350" as="sourcePoint"/>
                        <mxPoint x="440" y="300" as="targetPoint"/>
                    </mxGeometry>
                </mxCell>
                <mxCell id="s0uS01qcBZFRv248yT1l-18" value="participate" style="edgeLabel;html=1;align=center;verticalAlign=middle;resizable=0;points=[];" parent="s0uS01qcBZFRv248yT1l-17" vertex="1" connectable="0">
                    <mxGeometry x="-0.0323" y="2" relative="1" as="geometry">
                        <mxPoint as="offset"/>
                    </mxGeometry>
                </mxCell>
                <mxCell id="s0uS01qcBZFRv248yT1l-19" value="join Battle" style="rounded=1;whiteSpace=wrap;html=1;" parent="1" vertex="1">
                    <mxGeometry x="250" y="430" width="120" height="60" as="geometry"/>
                </mxCell>
                <mxCell id="s0uS01qcBZFRv248yT1l-26" value="repository creation" style="rounded=1;whiteSpace=wrap;html=1;" parent="1" vertex="1">
                    <mxGeometry x="250" y="260" width="120" height="60" as="geometry"/>
                </mxCell>
            </root>
        </mxGraphModel>
    </diagram>
</mxfile>